# xmcd
#
# Track frame offsets: 
#        150
#        12450
#        28584
#        41586
#        59556
#        76608
#        89691
#        111036
#        126495
#        141873
#        162003
#        174168
#        196485
#        212106
#        229887
#
# Disc length: 3236 seconds
#
# Revision: 0
# Processed by: cddbd v1.5.2PL0 Copyright (c) Steve Scherf et al.
# Submitted via: ExactAudioCopy v1.0b1
#
DISCID=cc0ca20f
DTITLE=Thom Shepherd - Tonkyhonk (Advance CD)
DYEAR=2005
DGENRE=Country
TTITLE0=All For The Love Of A Girl 
TTITLE1=Ghosts of New Orleans 
TTITLE2=Drunk I Am 
TTITLE3=Without The Song 
TTITLE4=Redneck Yacht Club 
TTITLE5=Round Here 
TTITLE6=Last Letter Home 
TTITLE7=Mature Adults 
TTITLE8=Bad Luck 
TTITLE9=What's New in New York 
TTITLE10=Buck It Up 
TTITLE11=Home To Me 
TTITLE12=Same Fool
TTITLE13=The Rock
TTITLE14=Riding With Inmate Jerome
EXTD=
EXTT0=
EXTT1=
EXTT2=
EXTT3=
EXTT4=
EXTT5=
EXTT6=
EXTT7=
EXTT8=
EXTT9=
EXTT10=
EXTT11=
EXTT12=
EXTT13=
EXTT14=
PLAYORDER=
